<svg width="65" height="42" viewBox="0 0 65 42" fill="none" xmlns="http://www.w3.org/2000/svg">
<path d="M36.85 0H18.43L36.85 22.7L46.07 11.35L36.85 0Z" fill="#6F6F6E"/>
<path d="M18.43 0L0 22.7H18.43L27.64 11.35L18.43 0Z" fill="#3E3E3D"/>
<path opacity="0.2" d="M36.85 0H18.43L22.01 1.83H36.24L43.96 11.35H46.07L36.85 0Z" fill="white"/>
<g style="mix-blend-mode:multiply">
<path d="M18.43 0L27.64 11.35L25.52 13.96L18.43 0Z" fill="#B1B1B0"/>
</g>
<path d="M29.9 19.34L27.5 16.39L25.13 19.31L27.52 22.26L29.9 19.34Z" fill="#BD5519"/>
<path d="M30.9 22.61L27.52 26.77L24.14 22.6L18.3 29.8L27.52 41.15H45.94L30.9 22.61Z" fill="#BD5519"/>
<path d="M45.94 18.45L27.52 41.15H45.94L64.37 18.45H45.94Z" fill="#DC911B"/>
<path opacity="0.2" d="M45.94 18.45L46.56 20.28H60.78L45.33 39.32L45.94 41.15L64.37 18.45H45.94Z" fill="white"/>
<g style="mix-blend-mode:multiply">
<path d="M27.52 41.15L36.73 29.8L34.61 27.18L27.52 41.15Z" fill="#B1B1B0"/>
</g>
</svg>
