<svg width="349" height="85" viewBox="0 0 349 85" fill="none" xmlns="http://www.w3.org/2000/svg">
<g clip-path="url(#clip0_292_1317)">
<path d="M47 -0.000180358H89C92 0.0698196 93.31 1.25982 93.61 4.20982C93.669 4.84806 93.6957 5.48888 93.69 6.12982C93.69 30.3632 93.69 54.5965 93.69 78.8298C93.69 79.4698 93.69 80.1098 93.61 80.7498C93.34 83.4498 92.27 84.4798 89.56 84.6498C89.16 84.6498 88.76 84.6498 88.36 84.6498H5.59998C4.84034 84.6545 4.08146 84.601 3.32998 84.4898C2.39427 84.4305 1.51972 84.0045 0.896246 83.3043C0.272767 82.604 -0.0492999 81.6861 -1.80746e-05 80.7498C-1.80746e-05 80.1898 -1.80746e-05 79.6298 -1.80746e-05 79.0698C-1.80746e-05 54.6365 -1.80746e-05 30.2065 -1.80746e-05 5.77982C-1.80746e-05 5.21982 -1.80746e-05 4.64982 -1.80746e-05 4.09982C-0.000950556 3.06776 0.397062 2.07528 1.11082 1.32984C1.82459 0.584395 2.79886 0.143682 3.82998 0.0998196C4.55112 0.0292844 5.27541 -0.00409304 5.99998 -0.000180358H47ZM68.3 34.5098C70.14 34.6298 71.88 34.7598 73.63 34.8398C73.9074 34.8996 74.1951 34.8929 74.4695 34.8203C74.7438 34.7477 74.9971 34.6113 75.2087 34.4221C75.4203 34.2329 75.5842 33.9964 75.6869 33.7319C75.7897 33.4673 75.8284 33.1822 75.8 32.8998C75.87 30.8198 75.87 28.7398 75.8 26.6598C75.8334 26.3758 75.7994 26.0878 75.7007 25.8194C75.602 25.5509 75.4415 25.3095 75.232 25.1147C75.0226 24.9199 74.7703 24.7772 74.4954 24.6982C74.2205 24.6191 73.9309 24.606 73.65 24.6598C71.37 24.7198 69.09 24.8898 66.82 24.8798C61.02 24.8798 55.23 24.7398 49.43 24.6598C47.75 24.6598 47.11 25.2198 47.07 26.9198C47.03 28.6198 47.07 30.2798 47.07 31.9198C47.07 34.4298 47.66 34.9198 50.15 34.7498C51.61 34.6298 53.07 34.5498 54.64 34.4498C54.85 39.6098 55.46 44.5798 54.77 49.6698C54.0066 49.2197 53.3293 48.6373 52.77 47.9498C46.9966 40.6498 41.2266 33.3098 35.46 25.9298C35.2603 25.6186 34.9742 25.3725 34.6367 25.2215C34.2992 25.0705 33.925 25.0213 33.56 25.0798C30.38 25.3498 27.19 25.4898 24 25.5898C22.56 25.5898 22.33 25.7298 22.33 27.2098C22.33 41.1232 22.33 55.0398 22.33 68.9598C22.33 70.5398 22.51 70.7198 24.16 70.7298C27.48 70.7298 30.8 70.7298 34.16 70.7298C36.25 70.7298 36.37 70.6298 36.33 68.5798C36.19 61.6998 36.03 54.8298 35.88 47.9498C35.88 47.4998 35.88 47.0398 35.88 46.5898L36.21 46.4798C36.49 46.7798 36.79 47.0598 37.05 47.3798C42.8 54.6298 48.63 61.8998 54.5 69.1298C54.9933 69.8337 55.7253 70.3347 56.56 70.5398C59.75 70.7298 62.95 70.6798 66.14 70.7398C67.33 70.7398 67.71 70.2398 67.72 69.0698C67.86 57.9998 68.05 46.9198 68.22 35.8498C68.23 35.4598 68.27 35.0698 68.3 34.5098ZM28.15 10.7798L28.07 10.9298C27.36 11.0398 26.64 11.0998 25.95 11.2798C24.5942 11.5833 23.3706 12.3114 22.457 13.358C21.5434 14.4047 20.9875 15.7155 20.87 17.0998C20.76 19.7098 22.74 22.1898 25.67 23.0998C26.6759 23.4423 27.742 23.572 28.8007 23.4808C29.8593 23.3896 30.8875 23.0794 31.82 22.5698C32.8731 22.109 33.7659 21.3462 34.3854 20.3779C35.0049 19.4095 35.3232 18.2791 35.3 17.1298C35.2977 15.9997 34.9601 14.8956 34.3299 13.9575C33.6997 13.0194 32.8053 12.2893 31.76 11.8598C30.5872 11.4047 29.3801 11.0435 28.15 10.7798Z" fill="#A8ABAD"/>
<path d="M172.6 38.3V36.8C172.6 25.8 172.6 14.8 172.6 3.80004C172.536 3.3264 172.56 2.84511 172.67 2.38004C172.83 2.00004 173.29 1.49004 173.67 1.48004C176.67 1.42004 179.59 1.42004 182.55 1.48004C182.9 1.48004 183.31 2.09004 183.55 2.48004C183.69 2.71004 183.55 3.10004 183.55 3.42004C183.55 20.6934 183.55 37.97 183.55 55.25C183.55 57.32 183.55 57.34 181.48 57.35C178.92 57.35 176.36 57.28 173.8 57.35C173.147 57.4068 172.492 57.269 171.917 56.954C171.342 56.639 170.874 56.161 170.57 55.58C165.84 48.17 161.06 40.79 156.29 33.4L149 22.18C148.785 21.8193 148.459 21.5385 148.07 21.38C148.07 21.8267 148.07 22.27 148.07 22.71C148.07 33.31 148.07 43.9067 148.07 54.5C148.07 55.02 148.07 55.5 148.07 56.06C148.07 57.06 147.63 57.4 146.68 57.39C143.96 57.39 141.24 57.39 138.52 57.39C137.44 57.39 137.16 56.91 137.18 55.92C137.18 52.72 137.18 49.52 137.18 46.32C137.18 31.92 137.18 17.5234 137.18 3.13004C137.18 1.43004 137.18 1.44004 138.89 1.44004C141.57 1.44004 144.25 1.44004 146.89 1.44004C147.404 1.3945 147.92 1.49987 148.374 1.74322C148.829 1.98658 149.203 2.35733 149.45 2.81004C156.783 14.31 164.117 25.7967 171.45 37.27L172.17 38.36L172.6 38.3Z" fill="#A8ABAD"/>
<path d="M245.7 29.4998C245.7 21.2198 245.7 12.9431 245.7 4.66975C245.7 4.06975 245.7 3.46975 245.7 2.86975C245.7 1.99975 246.14 1.64975 246.97 1.66975C247.8 1.68975 248.73 1.66975 249.61 1.66975H287.28C288.82 1.66975 288.88 1.71975 288.89 3.30975C288.89 5.30975 288.89 7.30975 288.89 9.30975C288.89 11.0398 288.89 11.0698 287.16 11.0698H259.72C257.42 11.0698 257.42 11.0698 257.43 13.3598C257.43 16.2798 257.43 19.1998 257.43 22.1198C257.43 23.1998 257.8 23.5898 258.91 23.5898C267.51 23.5898 276.11 23.5898 284.7 23.5898C286.51 23.5898 286.7 23.7498 286.7 25.5298C286.7 27.5298 286.7 29.4498 286.76 31.4098C286.76 32.4898 286.35 32.9598 285.29 32.9498C282.97 32.9498 280.65 32.9498 278.29 32.9498C271.81 32.9498 265.29 32.9498 258.85 32.9498C257.77 32.9498 257.34 33.2998 257.34 34.3898C257.34 38.5498 257.34 42.7098 257.34 46.8698C257.34 48.0398 257.81 48.3598 258.92 48.3498C268.6 48.3498 278.28 48.3498 287.92 48.3498C289.74 48.3498 289.92 48.5098 289.92 50.3498C289.92 52.3498 289.92 54.3498 289.92 56.3498C289.92 57.3498 289.56 57.7698 288.51 57.7698C274.79 57.7698 261.073 57.7698 247.36 57.7698C245.78 57.7698 245.55 57.5198 245.55 55.7698C245.55 47.0498 245.55 38.3331 245.55 29.6198L245.7 29.4998Z" fill="#A8ABAD"/>
<path d="M310.1 29.12C310.21 33.22 310.44 36.89 311.75 40.39C314.95 48.9 325.86 51.87 332.66 46.08C334.74 44.1723 336.244 41.7194 337 39C337.63 37.11 337.63 37.12 339.48 37.7C342.11 38.52 344.75 39.3 347.38 40.11C348.77 40.54 348.88 40.74 348.45 42.11C345.08 52.48 337.26 58.3 326.35 58.62C322.027 58.9055 317.695 58.2222 313.67 56.62C310.32 55.2593 307.322 53.1594 304.897 50.4772C302.473 47.7949 300.686 44.5996 299.67 41.13C297.165 33.2888 297.384 24.8313 300.29 17.13C303.91 7.56996 311.15 2.37996 321.2 1.12996C326.852 0.258363 332.636 1.09405 337.81 3.52996C340.314 4.75787 342.541 6.48381 344.355 8.60217C346.169 10.7205 347.532 13.1868 348.36 15.85C348.66 16.72 348.44 17.24 347.53 17.45C344.46 18.16 341.38 18.86 338.31 19.59C337.37 19.81 337.04 19.29 336.76 18.54C336.035 16.3117 334.652 14.3551 332.794 12.9272C330.936 11.4993 328.69 10.6671 326.35 10.54C321.11 10.04 316.61 11.62 313.41 16C311.41 18.8 310.71 22.1 310.41 25.47C310.17 26.74 310.16 28.14 310.1 29.12Z" fill="#A8ABAD"/>
<path d="M220.76 34.3297C220.76 41.4897 220.76 48.6497 220.76 55.8097C220.76 57.3297 220.54 57.5996 219.07 57.6096C216.19 57.6096 213.31 57.6096 210.43 57.6096C209.36 57.6096 208.83 57.1996 208.85 56.0296C208.93 51.9496 208.977 47.873 208.99 43.7996C208.99 33.4796 208.99 23.1463 208.99 12.7996C208.99 11.3096 208.77 11.0496 207.13 11.0396C202.65 11.0396 198.13 11.0396 193.69 11.0396C191.69 11.0396 191.63 11.0396 191.61 8.95965C191.61 7.07965 191.61 5.19965 191.61 3.31965C191.61 1.68965 191.68 1.63965 193.3 1.63965H233.61C234.61 1.63965 235.69 1.63965 236.73 1.63965C237.47 1.63965 237.9 1.97965 237.9 2.63965C237.9 5.07965 237.9 7.51631 237.9 9.94965C237.9 11.0196 237.11 11.0596 236.29 11.0496C231.93 11.0496 227.57 11.0496 223.21 11.0496C220.66 11.0496 220.68 11.0496 220.68 13.5496C220.68 20.4696 220.68 27.3897 220.68 34.3097L220.76 34.3297Z" fill="#A8ABAD"/>
<path d="M115 29.2897C115 20.623 115 11.9864 115 3.37971C115 1.44971 115 1.44971 116.92 1.44971C119.64 1.44971 122.36 1.44971 125.08 1.44971C126.72 1.44971 126.75 1.44971 126.75 3.14971C126.75 19.663 126.75 36.1764 126.75 52.6897C126.75 53.8097 126.75 54.9297 126.75 56.0497C126.781 56.2291 126.769 56.4134 126.714 56.5871C126.66 56.7608 126.564 56.9189 126.436 57.0482C126.308 57.1774 126.15 57.2741 125.977 57.33C125.804 57.3859 125.62 57.3996 125.44 57.3697H116.32C115.25 57.3697 114.89 56.8597 114.9 55.7997C114.9 46.9597 114.9 38.1297 114.9 29.2897H115Z" fill="#A8ABAD"/>
<path d="M239 80.7496L241.49 76.5996C242.15 75.4996 242.87 74.4396 243.49 73.2996C243.562 73.0902 243.679 72.899 243.833 72.7389C243.986 72.5788 244.172 72.4537 244.378 72.372C244.584 72.2904 244.805 72.2541 245.026 72.2658C245.248 72.2775 245.464 72.3368 245.66 72.4396V83.4396H244.2V75.1396L243.96 75.0396C243.77 75.2896 243.57 75.5396 243.4 75.8096C242.06 78.0396 240.7 80.2496 239.4 82.5096C238.91 83.3696 238.4 83.7696 237.33 83.3696V72.3696H238.72V80.6596L239 80.7496Z" fill="#A8ABAD"/>
<path d="M253.28 72.3499H254.68V80.6399L255 80.7199L257.19 77.1099C257.95 75.8499 258.75 74.5999 259.45 73.2999C259.521 73.0964 259.634 72.9104 259.783 72.7544C259.932 72.5984 260.112 72.476 260.312 72.3955C260.512 72.315 260.727 72.2782 260.942 72.2876C261.157 72.2969 261.368 72.3523 261.56 72.4499V83.4499H260.18V74.7599C259.81 75.2299 259.61 75.4399 259.47 75.6799C258.11 77.9399 256.71 80.1699 255.47 82.4699C255.399 82.6788 255.285 82.8706 255.135 83.0328C254.986 83.195 254.804 83.3241 254.601 83.4117C254.399 83.4993 254.18 83.5435 253.959 83.5415C253.739 83.5395 253.521 83.4912 253.32 83.3999L253.28 72.3499Z" fill="#A8ABAD"/>
<path d="M302.18 77.9C302.18 82.25 299.18 84.7 295.24 83.51L295.01 83.44C292.17 82.44 290.88 78.17 292.41 74.88C292.737 74.2502 293.189 73.6936 293.738 73.2437C294.287 72.7938 294.921 72.4601 295.603 72.2627C296.285 72.0654 296.999 72.0087 297.703 72.0959C298.408 72.183 299.087 72.4124 299.7 72.77C301.33 73.68 302.17 75.43 302.18 77.9ZM293.33 77.9C293.413 78.6064 293.537 79.3076 293.7 80C293.901 80.7248 294.334 81.3639 294.933 81.8192C295.531 82.2745 296.263 82.5211 297.015 82.5211C297.767 82.5211 298.499 82.2745 299.097 81.8192C299.696 81.3639 300.129 80.7248 300.33 80C300.82 78.5046 300.774 76.8851 300.2 75.42C299.968 74.752 299.519 74.1811 298.924 73.7986C298.33 73.4161 297.624 73.244 296.92 73.31C296.234 73.2805 295.557 73.4781 294.995 73.8722C294.433 74.2664 294.016 74.835 293.81 75.49C293.594 76.2844 293.433 77.0931 293.33 77.91V77.9Z" fill="#A8ABAD"/>
<path d="M184.33 76.9996C184.33 82.2096 181.33 84.6696 177.41 83.4896L177.18 83.4196C174.34 82.4196 173.03 78.1596 174.56 74.8696C174.883 74.2374 175.332 73.6778 175.879 73.2253C176.427 72.7729 177.061 72.4371 177.742 72.2385C178.424 72.04 179.139 71.9829 179.844 72.0708C180.549 72.1587 181.228 72.3897 181.84 72.7496C182.593 73.176 183.219 73.7935 183.656 74.5398C184.094 75.2861 184.326 76.1347 184.33 76.9996ZM175.48 77.9196C175.563 78.6129 175.687 79.3007 175.85 79.9796C176.031 80.7246 176.463 81.3846 177.073 81.8489C177.683 82.3132 178.434 82.5536 179.2 82.5296C179.955 82.5762 180.7 82.3443 181.295 81.8781C181.891 81.4118 182.294 80.7435 182.43 79.9996C182.678 78.524 182.65 77.0154 182.35 75.5496C182.02 73.9896 180.72 73.2896 179.08 73.3196C178.374 73.2912 177.679 73.5017 177.107 73.9173C176.535 74.3329 176.121 74.9291 175.93 75.6096C175.731 76.3756 175.584 77.154 175.49 77.9396L175.48 77.9196Z" fill="#A8ABAD"/>
<path d="M217 77.76C217.11 82.13 214 84.7 210.06 83.51C209.869 83.4521 209.682 83.3819 209.5 83.3C206.89 82.13 205.78 78.17 207.16 75.01C207.448 74.3927 207.856 73.8389 208.361 73.3807C208.865 72.9225 209.455 72.5692 210.097 72.3412C210.739 72.1132 211.42 72.0152 212.101 72.0527C212.781 72.0903 213.447 72.2628 214.06 72.56C216.35 73.55 217 75.52 217 77.76ZM208.13 77.94C208.214 78.6332 208.338 79.3209 208.5 80C208.687 80.7448 209.123 81.403 209.736 81.8651C210.35 82.3272 211.103 82.5654 211.87 82.54C212.63 82.5872 213.38 82.355 213.981 81.8872C214.581 81.4194 214.99 80.7482 215.13 80C215.364 78.5224 215.327 77.0143 215.02 75.5501C214.68 73.97 213.4 73.29 211.75 73.32C211.045 73.2951 210.351 73.5071 209.78 73.9221C209.209 74.3372 208.794 74.9314 208.6 75.61C208.405 76.3763 208.261 77.1547 208.17 77.94H208.13Z" fill="#A8ABAD"/>
<path d="M198.33 73.6796H194.33C194.28 74.2696 194.24 74.8496 194.18 75.4296C194.01 77.2596 193.96 79.1096 193.61 80.8996C193.577 81.2989 193.46 81.6867 193.266 82.0375C193.073 82.3882 192.807 82.6941 192.487 82.9349C192.167 83.1758 191.799 83.3461 191.408 83.4349C191.018 83.5236 190.613 83.5286 190.22 83.4496L190.15 82.2396C191.67 82.2396 192.15 81.2396 192.3 79.9696C192.5 77.7796 192.66 75.5896 192.76 73.3996C192.76 72.5796 193.02 72.2796 193.87 72.3096C195.78 72.3696 197.7 72.3096 199.73 72.3096V83.4596L198.35 83.5296L198.33 73.6796Z" fill="#A8ABAD"/>
<path d="M158.68 72.3498H160V76.6898H165.49V72.3898L166.94 72.3198V83.4298H165.59V78.1098H160.06V83.4398H158.63L158.68 72.3498Z" fill="#A8ABAD"/>
<path d="M129.9 83.46V72.46H137.12L137.2 73.63H131.35C131.35 74.47 131.35 75.18 131.35 75.88C131.35 76.58 131.61 76.88 132.35 76.88C133.78 76.88 135.21 76.88 136.72 76.88V78H131.48V82.26H137.15V83.47L129.9 83.46Z" fill="#A8ABAD"/>
<path d="M347 83.3999C345.93 83.7199 345.36 83.5099 345 82.3999C344.43 80.3999 344.35 80.3999 342.27 80.3999H342C339.87 80.3999 339.81 80.3999 339.2 82.4499C338.91 83.4499 338.42 83.7299 337.37 83.4499C337.52 82.9799 337.67 82.4499 337.83 82.0299C338.83 79.1399 339.89 76.2499 340.89 73.3499C341.12 72.6699 341.42 72.3499 342.23 72.3499C342.527 72.3216 342.824 72.4101 343.058 72.5967C343.291 72.7834 343.442 73.0535 343.48 73.3499C344.6 76.6299 345.81 79.9999 347 83.3999ZM344 79.1199L342.15 73.7499L340.33 79.1199H344Z" fill="#A8ABAD"/>
<path d="M280 79.4397V83.4397L278.55 83.5197V72.1997C280.272 72.2618 281.988 72.4288 283.69 72.6997C284.405 72.8674 285.028 73.3035 285.43 73.9178C285.832 74.5321 285.982 75.2775 285.85 75.9997C285.79 76.7843 285.466 77.5253 284.93 78.1013C284.394 78.6773 283.678 79.054 282.9 79.1697C282 79.3297 281 79.3397 280 79.4397ZM280.11 73.5897V78.0997C281.58 78.0197 283.18 78.4697 283.94 76.9097C284.103 76.5226 284.18 76.1045 284.164 75.6847C284.148 75.265 284.041 74.8537 283.85 74.4797C282.93 73.1697 281.42 73.6097 280.08 73.5897H280.11Z" fill="#A8ABAD"/>
<path d="M147.62 76.7497L149.87 73.3197C150.56 72.2597 150.56 72.2597 152.09 72.3997C151 73.9997 150 75.5297 149 76.9997C148.788 77.2303 148.671 77.5318 148.671 77.8447C148.671 78.1576 148.788 78.4591 149 78.6897C150 80.1897 151 81.7497 152 83.3597C151.797 83.4673 151.573 83.531 151.344 83.5466C151.114 83.5621 150.884 83.5292 150.668 83.45C150.452 83.3708 150.255 83.247 150.09 83.0867C149.925 82.9265 149.795 82.7333 149.71 82.5197C149.09 81.3697 148.31 80.2997 147.49 79.0197C146.67 80.2697 145.87 81.3397 145.22 82.4997C145.136 82.7066 145.011 82.8945 144.853 83.0521C144.695 83.2097 144.507 83.3338 144.299 83.4169C144.092 83.5 143.87 83.5404 143.647 83.5357C143.424 83.531 143.204 83.4814 143 83.3897C143.93 81.9897 144.77 80.5697 145.77 79.2797C145.95 79.1037 146.092 78.8937 146.19 78.6619C146.287 78.4301 146.337 78.1811 146.337 77.9297C146.337 77.6782 146.287 77.4293 146.19 77.1975C146.092 76.9657 145.95 76.7557 145.77 76.5797C144.77 75.2997 143.98 73.8697 143.06 72.4597C143.262 72.3567 143.483 72.2965 143.71 72.2828C143.936 72.2691 144.163 72.3022 144.376 72.3801C144.589 72.458 144.784 72.579 144.948 72.7355C145.112 72.892 145.242 73.0806 145.33 73.2897C146 74.4397 146.82 75.4997 147.62 76.7497Z" fill="#A8ABAD"/>
<path d="M317.42 74.51C316.307 74.0868 315.172 73.7229 314.02 73.42C313.425 73.3379 312.818 73.4245 312.27 73.67C310.16 74.52 309.27 77.86 310.45 80.38C311.45 82.46 313.71 83.12 315.95 81.94C316.33 81.74 316.7 81.5 317.08 81.27C317.46 82.7 317.4 82.82 316.14 83.27C313.49 84.27 310.85 83.65 309.49 81.79C308.75 80.6213 308.366 79.263 308.384 77.8801C308.402 76.4972 308.821 75.1492 309.59 74C311.14 72 314.99 71.42 316.9 72.92C317.26 73.21 317.25 73.95 317.42 74.51Z" fill="#A8ABAD"/>
<path d="M322.82 73.6799V72.3799H332.1V73.6099H328.26V83.4399H326.74V73.6799H322.82Z" fill="#A8ABAD"/>
<path d="M118.09 73.6099H114.09L114.03 72.3999H123.45V73.6299H119.45V83.4699H118.02L118.09 73.6099Z" fill="#A8ABAD"/>
<path d="M230.79 72.4097V73.6197H225.42V83.4597L224.02 83.5197V72.4097H230.79Z" fill="#A8ABAD"/>
</g>
<defs>
<clipPath id="clip0_292_1317">
<rect width="348.64" height="84.66" fill="white"/>
</clipPath>
</defs>
</svg>
